<?xml version="1.0" standalone="no"?>
<!DOCTYPE svg PUBLIC "-//W3C//DTD SVG 20010904//EN"
 "http://www.w3.org/TR/2001/REC-SVG-20010904/DTD/svg10.dtd">
<svg version="1.0" xmlns="http://www.w3.org/2000/svg"
 width="512.000000pt" height="512.000000pt" viewBox="0 0 512.000000 512.000000"
 preserveAspectRatio="xMidYMid meet">

<g transform="translate(0.000000,512.000000) scale(0.100000,-0.100000)"
fill="#000000" stroke="none">
<path d="M0 2560 l0 -2560 2560 0 2560 0 0 2560 0 2560 -2560 0 -2560 0 0
-2560z m3131 1520 c76 -21 129 -124 107 -206 -6 -22 -12 -64 -12 -94 -2 -66 0
-58 -91 -290 -40 -102 -132 -340 -203 -530 -72 -190 -166 -437 -210 -550 -44
-113 -119 -308 -167 -435 -262 -692 -378 -987 -399 -1020 -37 -56 -141 -77
-194 -39 -42 31 -74 101 -67 149 3 23 -1 61 -10 89 -8 27 -12 60 -9 75 8 34
150 415 226 606 33 83 95 245 138 360 43 116 128 341 190 500 157 409 323 844
415 1090 87 231 114 272 192 293 51 13 53 13 94 2z m-1319 -732 c55 -31 82
-80 82 -143 -1 -28 -7 -62 -14 -75 -7 -14 -14 -53 -14 -87 -1 -58 -4 -65 -36
-97 -34 -32 -197 -136 -537 -341 -90 -54 -163 -103 -163 -109 1 -6 78 -58 173
-115 544 -329 551 -334 573 -388 19 -43 18 -111 -2 -148 -10 -20 -14 -44 -10
-70 12 -91 -45 -155 -138 -155 -49 0 -64 8 -386 208 -627 390 -571 352 -603
414 -16 31 -32 83 -37 119 -5 35 -14 96 -21 135 -11 62 -10 80 4 140 30 119
65 159 229 262 79 49 267 167 418 262 151 95 291 181 310 191 48 26 122 25
172 -3z m1658 8 c31 -11 202 -116 743 -456 112 -71 155 -104 178 -136 55 -80
77 -179 58 -260 -6 -27 -11 -59 -11 -71 0 -13 -4 -23 -8 -23 -4 0 -5 -11 -3
-24 7 -35 -22 -126 -55 -172 -19 -26 -72 -66 -158 -120 -293 -185 -711 -442
-741 -458 -66 -33 -163 -11 -195 46 -7 13 -16 55 -19 93 -4 39 -13 89 -20 112
-16 52 0 114 39 152 15 15 186 123 380 241 193 118 352 217 352 221 0 4 -73
51 -162 105 -485 293 -542 330 -566 376 -17 31 -22 54 -19 84 2 24 -1 51 -9
65 -16 28 -18 107 -5 142 29 76 133 115 221 83z"/>
<path d="M1910 1086 c0 -2 8 -10 18 -17 15 -13 16 -12 3 4 -13 16 -21 21 -21
13z"/>
<path d="M740 2336 c0 -2 8 -10 18 -17 15 -13 16 -12 3 4 -13 16 -21 21 -21
13z"/>
<path d="M1708 1743 c6 -2 18 -2 25 0 6 3 1 5 -13 5 -14 0 -19 -2 -12 -5z"/>
<path d="M4349 2303 c-13 -16 -12 -17 4 -4 16 13 21 21 13 21 -2 0 -10 -8 -17
-17z"/>
<path d="M3388 1743 c6 -2 18 -2 25 0 6 3 1 5 -13 5 -14 0 -19 -2 -12 -5z"/>
</g>
</svg>
