<?xml version="1.0" standalone="no"?>
<!DOCTYPE svg PUBLIC "-//W3C//DTD SVG 20010904//EN"
 "http://www.w3.org/TR/2001/REC-SVG-20010904/DTD/svg10.dtd">
<svg version="1.0" xmlns="http://www.w3.org/2000/svg"
 width="512.000000pt" height="512.000000pt" viewBox="0 0 512.000000 512.000000"
 preserveAspectRatio="xMidYMid meet">
<metadata>
Created by potrace 1.14, written by Peter Selinger 2001-2017
</metadata>
<g transform="translate(0.000000,512.000000) scale(0.100000,-0.100000)"
fill="#000000" stroke="none">
<path d="M0 2560 l0 -2560 2560 0 2560 0 0 2560 0 2560 -2560 0 -2560 0 0
-2560z m3131 1520 c76 -21 129 -124 107 -206 -6 -22 -11 -68 -13 -104 -2 -53
-15 -97 -70 -235 -37 -93 -150 -388 -252 -655 -101 -267 -208 -546 -238 -622
-30 -75 -119 -309 -199 -520 -239 -633 -294 -770 -322 -799 -37 -38 -110 -55
-155 -36 -19 8 -42 23 -51 33 -30 34 -50 95 -43 130 3 20 -1 55 -9 85 -9 29
-13 63 -10 78 8 36 116 326 235 631 54 140 168 437 253 660 85 223 210 551
279 730 68 179 159 420 202 535 87 231 114 272 192 293 51 13 53 13 94 2z
m-1319 -732 c55 -31 82 -80 82 -145 -1 -29 -8 -62 -16 -74 -11 -17 -12 -31 -5
-59 9 -31 7 -45 -12 -83 -21 -44 -37 -55 -229 -175 -114 -71 -273 -169 -354
-218 -81 -49 -147 -93 -147 -99 0 -5 77 -57 172 -114 544 -329 551 -334 573
-388 18 -41 18 -111 0 -144 -8 -15 -11 -46 -9 -80 5 -64 -9 -94 -56 -126 -25
-17 -48 -23 -86 -23 -49 0 -63 7 -281 142 -596 368 -675 420 -699 458 -31 50
-55 123 -55 170 0 22 -5 71 -12 108 -10 59 -9 79 5 138 30 119 65 159 229 262
79 49 267 167 418 262 151 95 291 181 310 191 48 26 122 25 172 -3z m1658 8
c31 -11 236 -137 743 -456 112 -70 155 -104 178 -136 54 -79 77 -179 59 -258
-6 -26 -12 -76 -14 -111 -3 -74 -46 -173 -93 -216 -15 -14 -129 -89 -253 -166
-124 -76 -315 -195 -425 -264 l-200 -124 -66 0 c-53 0 -72 4 -89 20 -38 35
-61 90 -59 147 1 29 -4 72 -11 95 -17 52 -1 114 38 152 15 15 186 123 380 241
193 118 352 217 352 220 0 3 -158 102 -351 220 -207 126 -359 226 -371 243
-29 40 -41 92 -28 117 8 15 7 27 -5 49 -21 41 -20 130 2 161 49 71 131 96 213
66z"/>
<path d="M1910 1086 c0 -2 8 -10 18 -17 15 -13 16 -12 3 4 -13 16 -21 21 -21
13z"/>
<path d="M740 2336 c0 -2 8 -10 18 -17 15 -13 16 -12 3 4 -13 16 -21 21 -21
13z"/>
<path d="M1718 1743 c7 -3 16 -2 19 1 4 3 -2 6 -13 5 -11 0 -14 -3 -6 -6z"/>
<path d="M4349 2303 c-13 -16 -12 -17 4 -4 16 13 21 21 13 21 -2 0 -10 -8 -17
-17z"/>
<path d="M3388 1743 c7 -3 16 -2 19 1 4 3 -2 6 -13 5 -11 0 -14 -3 -6 -6z"/>
</g>
</svg>
